<?xml version="1.0" encoding="UTF-8"?>
<svg version="1.1" xmlns="http://www.w3.org/2000/svg" width="500" height="500">
<path d="M0 0 C165 0 330 0 500 0 C500 165 500 330 500 500 C335 500 170 500 0 500 C0 335 0 170 0 0 Z " fill="#FEFEFE" transform="translate(0,0)"/>
<path d="M0 0 C4.68581288 2.58197853 4.68581288 2.58197853 6.0625 4.6875 C6.25 7.375 6.25 7.375 6.0625 9.6875 C3.75 10.375 3.75 10.375 1.0625 10.6875 C-0.5625 9.3125 -0.5625 9.3125 -1.9375 7.6875 C-5.57532632 6.47489123 -8.11485999 6.29205448 -11.9375 6.6875 C-15.10098401 8.34928189 -15.10098401 8.34928189 -16.9375 11.6875 C-17.5635211 16.55175594 -17.72685192 22.0457106 -15.9375 26.6875 C-11.61946736 28.12684421 -7.45437502 28.12976224 -2.9375 27.6875 C-0.19177272 26.20762037 -0.19177272 26.20762037 2.0625 24.6875 C4.875 25 4.875 25 7.0625 25.6875 C6.84062436 29.57032378 6.10002696 30.65080697 3.25 33.4375 C-1.82920088 37.02281827 -6.83346814 37.39026683 -12.9375 36.6875 C-18.53223244 35.02906145 -21.85483856 32.1997542 -25.02734375 27.37109375 C-27.56192314 22.68266577 -27.48343133 17.87000306 -26.9375 12.6875 C-25.1425413 6.75900783 -21.93651542 3.197447 -16.9375 -0.3125 C-11.47643672 -2.13285443 -5.37715896 -2.18984512 0 0 Z " fill="#41404D" transform="translate(249.9375,239.3125)"/>
<path d="M0 0 C2.5625 0.1875 2.5625 0.1875 4.5625 2.1875 C4.83241906 4.87589385 4.64987357 7.47891936 4.5625 10.1875 C7.2025 10.1875 9.8425 10.1875 12.5625 10.1875 C12.94468767 11.84364657 13.27645102 13.51207024 13.5625 15.1875 C12.5625 16.1875 12.5625 16.1875 10.71484375 16.28515625 C8.6640625 16.25260417 6.61328125 16.22005208 4.5625 16.1875 C4.70100705 19.64616792 4.84954727 23.10433275 5 26.5625 C5.03931641 27.54734375 5.07863281 28.5321875 5.11914062 29.546875 C5.18198242 30.95839844 5.18198242 30.95839844 5.24609375 32.3984375 C5.28275146 33.26774902 5.31940918 34.13706055 5.35717773 35.03271484 C5.43651544 37.2358262 5.43651544 37.2358262 6.5625 39.1875 C9.2025 39.1875 11.8425 39.1875 14.5625 39.1875 C15.2225 40.5075 15.8825 41.8275 16.5625 43.1875 C13.75530189 46.12229802 12.43404994 47.12172265 8.25 47.4375 C4.28503548 47.16868885 2.62619713 46.65547825 -0.4375 44.1875 C-3.03506639 40.55559792 -3.80495842 38.1125191 -3.73046875 33.66796875 C-3.72080078 32.64638672 -3.71113281 31.62480469 -3.70117188 30.57226562 C-3.67603516 29.51716797 -3.65089844 28.46207031 -3.625 27.375 C-3.61146484 26.30056641 -3.59792969 25.22613281 -3.58398438 24.11914062 C-3.54872577 21.47474545 -3.49944366 18.83138252 -3.4375 16.1875 C-5.4175 16.1875 -7.3975 16.1875 -9.4375 16.1875 C-10.5625 12.4375 -10.5625 12.4375 -9.4375 10.1875 C-7.4575 10.1875 -5.4775 10.1875 -3.4375 10.1875 C-3.44910156 9.54941406 -3.46070313 8.91132813 -3.47265625 8.25390625 C-3.48167969 7.42761719 -3.49070313 6.60132813 -3.5 5.75 C-3.51160156 4.92628906 -3.52320313 4.10257813 -3.53515625 3.25390625 C-3.39211585 0.22717144 -3.02891307 0.23299331 0 0 Z " fill="#3B3A47" transform="translate(206.4375,228.8125)"/>
<path d="M0 0 C1.03688965 0.01047363 2.0737793 0.02094727 3.14208984 0.03173828 C4.26357422 0.03818359 5.38505859 0.04462891 6.54052734 0.05126953 C7.71615234 0.06802734 8.89177734 0.08478516 10.10302734 0.10205078 C11.87806641 0.11558594 11.87806641 0.11558594 13.68896484 0.12939453 C16.61885257 0.15302266 19.54834075 0.18596564 22.47802734 0.22705078 C22.50518824 3.24794557 22.52494392 6.26859207 22.54052734 9.28955078 C22.54890625 10.13710937 22.55728516 10.98466797 22.56591797 11.85791016 C22.58483625 16.75774566 22.39337998 21.40704702 21.47802734 26.22705078 C20.47802734 27.22705078 20.47802734 27.22705078 16.97802734 27.35205078 C13.47802734 27.22705078 13.47802734 27.22705078 12.47802734 26.22705078 C12.05237975 20.50584641 12.65537904 14.8827579 13.47802734 9.22705078 C12.34623047 9.25025391 11.21443359 9.27345703 10.04833984 9.29736328 C8.56657559 9.31611979 7.08480423 9.33432012 5.60302734 9.35205078 C4.85666016 9.36880859 4.11029297 9.38556641 3.34130859 9.40283203 C1.38608273 9.42044668 -0.56939287 9.33025267 -2.52197266 9.22705078 C-4.52197266 7.22705078 -4.52197266 7.22705078 -4.77197266 4.72705078 C-4.42101219 1.21744607 -3.51269392 0.31624447 0 0 Z " fill="#22CD9A" transform="translate(269.52197265625,210.77294921875)"/>
<path d="M0 0 C-0.33 8.25 -0.66 16.5 -1 25 C-5 27 -5 27 -7.1875 26.6875 C-9 26 -9 26 -10 25 C-10.1328125 23.21484375 -10.1328125 23.21484375 -10.125 20.9375 C-10.12886719 19.83728516 -10.12886719 19.83728516 -10.1328125 18.71484375 C-9.95638381 15.10843383 -9.47721438 11.57910786 -9 8 C-10.21558594 8.01160156 -11.43117188 8.02320313 -12.68359375 8.03515625 C-14.26822764 8.04453278 -15.85286318 8.05363313 -17.4375 8.0625 C-18.23994141 8.07087891 -19.04238281 8.07925781 -19.86914062 8.08789062 C-21.91295221 8.0965143 -23.95683902 8.0522815 -26 8 C-27 7 -27 7 -27.0625 3.4375 C-27.041875 2.303125 -27.02125 1.16875 -27 0 C-19.89241558 -3.55379221 -7.61074566 -0.66180397 0 0 Z " fill="#1DCC98" transform="translate(278,225)"/>
</svg>
